<?xml version="1.0" standalone="no"?>
<!DOCTYPE svg PUBLIC "-//W3C//DTD SVG 20010904//EN"
 "http://www.w3.org/TR/2001/REC-SVG-20010904/DTD/svg10.dtd">
<svg version="1.0" xmlns="http://www.w3.org/2000/svg"
 width="336.000000pt" height="51.000000pt" viewBox="0 0 336.000000 51.000000"
 preserveAspectRatio="xMidYMid meet">
<metadata>
Created by potrace 1.15, written by Peter Selinger 2001-2017
</metadata>
<g transform="translate(0.000000,51.000000) scale(0.100000,-0.100000)"
fill="#000000" stroke="none">
<path d="M98 303 c-79 -191 -75 -175 -48 -171 16 2 27 16 40 48 l18 45 64 3
65 3 21 -51 c16 -38 26 -50 42 -50 12 0 20 4 18 9 -1 5 -30 75 -63 155 -79
193 -81 193 -157 9z"/>
<path d="M860 400 c0 -29 -4 -40 -15 -40 -8 0 -15 -4 -15 -10 0 -5 7 -10 15
-10 12 0 15 -17 15 -93 0 -59 4 -97 12 -105 20 -20 105 -12 92 9 -3 5 -18 9
-35 9 l-29 0 0 90 c0 89 0 90 25 90 14 0 25 5 25 10 0 6 -11 10 -25 10 -22 0
-25 4 -25 40 0 33 -3 40 -20 40 -17 0 -20 -7 -20 -40z"/>
<path d="M1600 331 c0 -60 -4 -121 -10 -135 -13 -36 -50 -51 -88 -38 -24 8
-32 7 -36 -3 -6 -18 15 -25 73 -25 38 0 52 5 72 26 22 24 24 34 27 155 3 125
3 129 -17 129 -20 0 -21 -5 -21 -109z"/>
<path d="M350 274 c0 -81 10 -120 34 -136 19 -13 91 -9 113 7 19 13 22 13 27
0 3 -8 15 -15 27 -15 17 0 20 4 15 23 -3 12 -6 64 -6 115 0 85 -1 92 -20 92
-18 0 -20 -7 -20 -74 0 -83 -18 -118 -67 -131 -46 -11 -63 21 -63 121 0 77 -2
84 -20 84 -18 0 -20 -7 -20 -86z"/>
<path d="M631 334 c-12 -15 -21 -31 -21 -36 0 -26 25 -48 63 -58 67 -17 87
-28 87 -49 0 -39 -59 -53 -110 -26 -21 11 -31 12 -36 3 -24 -38 129 -55 166
-18 27 27 26 66 -2 84 -13 8 -44 20 -71 27 -53 13 -61 20 -52 49 8 26 46 35
90 20 42 -14 59 -5 31 16 -11 8 -43 14 -72 14 -45 0 -56 -4 -73 -26z"/>
<path d="M1110 245 c0 -108 1 -115 20 -115 18 0 20 7 20 78 0 69 3 81 23 99
35 31 55 35 77 13 17 -17 20 -34 20 -105 0 -78 2 -85 20 -85 19 0 20 7 20 93
0 116 -11 137 -74 137 -29 0 -52 -7 -71 -22 l-27 -21 6 21 c6 18 3 22 -13 22
-20 0 -21 -5 -21 -115z"/>
<path d="M1724 326 c-29 -29 -34 -41 -34 -81 0 -40 5 -52 34 -81 30 -30 40
-34 84 -34 39 0 57 5 79 24 24 21 26 25 11 31 -11 4 -28 -1 -44 -14 -30 -23
-61 -26 -85 -8 -15 11 -39 49 -39 61 0 3 42 6 94 6 52 0 97 3 99 8 11 17 -7
65 -35 92 -25 25 -37 30 -80 30 -44 0 -54 -4 -84 -34z"/>
<path d="M1970 245 c0 -108 1 -115 20 -115 18 0 20 7 20 71 0 39 5 79 10 90
13 24 60 48 80 41 26 -9 30 -24 30 -114 0 -81 2 -88 20 -88 19 0 20 7 20 98 0
83 -3 102 -18 115 -24 21 -90 22 -120 1 -20 -14 -22 -14 -22 0 0 9 -9 16 -20
16 -19 0 -20 -7 -20 -115z"/>
<path d="M2240 245 c0 -108 1 -115 20 -115 18 0 20 7 20 78 0 69 3 81 23 99
35 31 55 35 77 13 17 -17 20 -34 20 -105 0 -78 2 -85 20 -85 18 0 20 7 20 88
0 114 -11 136 -69 140 -33 2 -52 -2 -73 -18 -28 -21 -28 -21 -28 0 0 11 -7 20
-15 20 -12 0 -15 -19 -15 -115z"/>
<path d="M2610 245 c0 -108 1 -115 20 -115 18 0 20 7 20 78 0 69 3 81 23 99
35 31 55 35 77 13 17 -17 20 -34 20 -105 0 -78 2 -85 20 -85 18 0 20 7 20 88
0 114 -11 136 -69 140 -33 2 -52 -2 -73 -18 -28 -21 -28 -21 -28 0 0 11 -7 20
-15 20 -12 0 -15 -19 -15 -115z"/>
<path d="M2904 342 c-62 -49 -59 -149 6 -199 21 -17 91 -16 118 3 21 14 22 14
22 -9 0 -13 -9 -36 -21 -51 -26 -33 -84 -36 -122 -6 -33 26 -48 7 -18 -24 17
-17 33 -21 82 -21 56 0 63 3 90 33 29 32 29 33 29 162 0 123 -1 130 -20 130
-11 0 -20 -7 -20 -16 0 -14 -2 -14 -22 0 -30 21 -98 20 -124 -2z m124 -35 c22
-21 30 -75 16 -112 -9 -22 -61 -47 -84 -40 -31 10 -60 55 -60 92 0 25 8 43 30
64 33 34 58 33 98 -4z"/>
<path d="M3162 337 c-44 -46 -19 -88 61 -102 37 -7 67 -27 67 -45 0 -17 -32
-40 -56 -40 -14 0 -38 7 -54 15 -21 11 -31 12 -36 3 -13 -20 28 -38 86 -38 47
0 60 4 80 25 20 21 22 30 14 53 -8 22 -21 31 -74 48 -51 16 -66 25 -68 42 -5
33 38 50 83 33 42 -15 67 -5 40 16 -11 7 -42 13 -70 13 -41 0 -56 -5 -73 -23z"/>
</g>
</svg>
